# xmcd CD database file
#
# Track frame offsets:
#	150
#	11836
#	27473
#	37854
#	51264
#	59134
#	80045
#	94047
#	108651
#	118999
#	136029
#	148342
#	167582
#	189141
#	203191
#	218450
#	232795
#	246265
#	268082
#
# Disc length: 4137 seconds
#
# Revision: 1
# Processed by: cddbd v1.5.2PL0 Copyright (c) Steve Scherf et al.
# Submitted via: CDex 1.70beta2
#
DISCID=12102713
DTITLE=Charlie Parker Quintet - Jazz Roads CD386 - Bebop - Charlie Parker Live Vol.1 (1950)
DYEAR=1900
DGENRE=Jazz
TTITLE0=Charlie Parker Quintet - I Didn't Know What Time It Was
TTITLE1=Charlie Parker Quintet - Ornithology
TTITLE2=Charlie Parker Quintet - Embraceable You
TTITLE3=Charlie Parker Quintet - Visa
TTITLE4=Charlie Parker Quintet - I Cover The Waterfront
TTITLE5=Charlie Parker Quintet - Scrapple From The Apple
TTITLE6=Charlie Parker Quintet - Star Eyes and 52nd Street Theme
TTITLE7=Charlie Parker Quintet - Confirmation
TTITLE8=Charlie Parker Quintet - Out Of Nowhere
TTITLE9=Charlie Parker Quintet - Hot House
TTITLE10=Charlie Parker Quintet - What's New?
TTITLE11=Charlie Parker Quintet - Now's The Time
TTITLE12=Charlie Parker Quintet - Smoke Gets In You Eyes and 52nd Street Theme
TTITLE13=Charlie Parker Quintet - Just Friends
TTITLE14=Charlie Parker Quintet - April In Paris
TTITLE15=Charlie Parker Quintet - Just Friends
TTITLE16=Charlie Parker Quintet - April In Paris
TTITLE17=Charlie Parker Quintet - Ballad Medley Bewitched - Summertime
TTITLE18=Charlie Parker Quintet - Ballad Medley I Cover The Waterfront - Gone With The Wind - Easy To Love/ 52nd Street Theme
EXTD=
EXTT0=
EXTT1=
EXTT2=
EXTT3=
EXTT4=
EXTT5=
EXTT6=
EXTT7=
EXTT8=
EXTT9=
EXTT10=
EXTT11=
EXTT12=
EXTT13=
EXTT14=
EXTT15=
EXTT16=
EXTT17=
EXTT18=
PLAYORDER=
